<svg width="29" height="26" viewBox="0 0 29 26" fill="none" xmlns="http://www.w3.org/2000/svg">
<path d="M13.2627 0H15.6704V2.33333H13.2627V0Z" fill="white"/>
<path d="M20.4854 0H22.8931V2.33333H20.4854V0Z" fill="white"/>
<path d="M6.03906 0H8.44679V2.33333H6.03906V0Z" fill="white"/>
<path d="M27.7094 2.33331H22.8939V5.83331H20.4862V2.33331H15.6707V5.83331H13.263V2.33331H8.44756V5.83331H6.03983V2.33331H1.22437C0.905088 2.33331 0.59888 2.45623 0.373112 2.67502C0.147343 2.89381 0.0205078 3.19056 0.0205078 3.49998L0.0205078 24.5C0.0205078 24.8094 0.147343 25.1061 0.373112 25.3249C0.59888 25.5437 0.905088 25.6666 1.22437 25.6666H27.7094C28.0287 25.6666 28.3349 25.5437 28.5607 25.3249C28.7864 25.1061 28.9133 24.8094 28.9133 24.5V3.49998C28.9133 3.19056 28.7864 2.89381 28.5607 2.67502C28.3349 2.45623 28.0287 2.33331 27.7094 2.33331ZM22.1943 17.2827L20.4862 16.1V21C20.4862 21.3094 20.3594 21.6061 20.1336 21.8249C19.9078 22.0437 19.6016 22.1666 19.2823 22.1666H16.2727V17.5C16.2727 17.1906 16.1458 16.8938 15.9201 16.675C15.6943 16.4562 15.3881 16.3333 15.0688 16.3333H13.8649C13.5457 16.3333 13.2395 16.4562 13.0137 16.675C12.7879 16.8938 12.6611 17.1906 12.6611 17.5V22.1666H9.65142C9.33214 22.1666 9.02593 22.0437 8.80016 21.8249C8.57439 21.6061 8.44756 21.3094 8.44756 21V16.1L6.73958 17.2827L5.34008 15.3839L13.7671 9.5506C13.9722 9.4113 14.2165 9.33657 14.4669 9.33657C14.7173 9.33657 14.9616 9.4113 15.1666 9.5506L23.5937 15.3839L22.1943 17.2827Z" fill="white"/>
</svg>
